<svg width="150" height="28" viewBox="0 0 150 28" fill="none" xmlns="http://www.w3.org/2000/svg">
<path fill-rule="evenodd" clip-rule="evenodd" d="M14.9969 2.13112C8.74684 1.94801 4.15254 4.22623 2.58498 9.12803C1.79863 11.587 2.16657 14.2071 3.05613 16.5604C3.94602 18.9145 5.32012 20.8972 6.38374 22.0123C6.63779 22.2786 6.73474 22.655 6.6403 23.0085L6.04827 25.2241C7.63116 24.6231 8.92089 24.0836 9.76759 23.5931C10.2802 23.2961 10.9402 23.4647 11.2417 23.9696C11.5432 24.4745 11.372 25.1245 10.8594 25.4215C9.48695 26.2166 7.2634 27.0556 4.84974 27.9342C4.473 28.0713 4.05009 27.9906 3.7527 27.7247C3.45531 27.4588 3.33288 27.052 3.4351 26.6694L4.4102 23.0202C3.24274 21.6761 1.92535 19.6483 1.03787 17.3005C0.0458648 14.6762 -0.446782 11.5478 0.53086 8.49074C2.50181 2.32757 8.28788 -0.187596 15.0609 0.0108377C22.9835 0.242952 29.3448 7.22147 27.7547 14.3435C26.3597 20.5916 19.941 22.9251 14.9777 22.6924C9.65252 22.4427 5.43862 17.7502 4.94452 12.8842C4.56838 9.17981 6.45516 6.09234 9.88354 5.54113C11.1263 5.34133 12.1302 5.734 12.8801 6.23199C13.2051 6.44783 13.5048 6.70197 13.7597 6.93806C14.0731 6.71407 14.4388 6.47815 14.8388 6.26494C15.6383 5.83876 16.7053 5.43285 17.8194 5.53155C20.8659 5.80144 23.0324 8.28988 23.0324 11.4417C23.0324 14.1215 21.3905 16.7415 18.0439 17.7708C17.4762 17.9454 16.8723 17.6336 16.6951 17.0745C16.5178 16.5154 16.8343 15.9206 17.402 15.746C19.8373 14.997 20.8788 13.206 20.8788 11.4417C20.8788 9.28709 19.4639 7.80701 17.6265 7.64424C17.1307 7.60031 16.5138 7.78402 15.8637 8.13052C15.2341 8.46613 14.6945 8.8893 14.3973 9.1495C13.9761 9.5182 13.3376 9.50475 12.9328 9.11866C12.8215 9.0125 12.7169 8.90812 12.6147 8.80612C12.3171 8.50908 12.0397 8.23224 11.6761 7.99078C11.2391 7.70058 10.7837 7.5457 10.2305 7.63465C8.21738 7.95831 6.79241 9.76754 7.08744 12.6731C7.49135 16.6509 10.9745 20.381 15.0801 20.5735C19.5477 20.783 24.5828 18.6737 25.6513 13.8879C26.8972 8.30807 21.8362 2.3315 14.9969 2.13112Z" fill="#FF2E7F"/>
<path d="M141.028 23.9688C140.491 23.9688 139.954 23.9473 139.61 23.9043V21.7129C139.954 21.7344 140.405 21.7559 140.771 21.7559C141.437 21.7559 141.995 21.6914 142.468 20.4453L142.704 19.8223L138.45 7.91992H141.351L144.058 16.7285H144.187L146.894 7.91992H149.794L145.11 21.0039C144.444 22.873 143.22 23.9688 141.028 23.9688Z" fill="#FF2E7F"/>
<path d="M132.853 19.8223C129.33 19.8223 127.181 17.4805 127.181 13.8281C127.181 10.2188 129.373 7.76953 132.703 7.76953C135.56 7.76953 138.031 9.55273 138.031 13.6562V14.5156H129.888C129.92 16.5029 131.091 17.6738 132.875 17.6738C134.078 17.6738 134.894 17.1582 135.238 16.4707H137.923C137.429 18.4902 135.56 19.8223 132.853 19.8223ZM129.91 12.6465H135.41C135.388 11.0566 134.335 9.89648 132.746 9.89648C131.091 9.89648 129.996 11.1533 129.91 12.6465Z" fill="#FF2E7F"/>
<path d="M126.805 7.91992L122.637 19.5859H119.629L115.461 7.91992H118.383L121.068 16.5996H121.197L123.904 7.91992H126.805Z" fill="#FF2E7F"/>
<path d="M109.52 19.8223C106.125 19.8223 103.934 17.416 103.934 13.8066C103.934 10.1758 106.125 7.76953 109.52 7.76953C112.936 7.76953 115.106 10.1758 115.106 13.8066C115.106 17.416 112.936 19.8223 109.52 19.8223ZM109.542 17.6309C111.411 17.6309 112.334 15.9336 112.334 13.7852C112.334 11.6582 111.411 9.93945 109.542 9.93945C107.629 9.93945 106.706 11.6582 106.706 13.7852C106.706 15.9336 107.629 17.6309 109.542 17.6309Z" fill="#FF2E7F"/>
<path d="M95.9092 19.8008C93.1592 19.8008 91.0967 17.6094 91.0967 13.7637C91.0967 9.875 93.2236 7.76953 95.9307 7.76953C97.9932 7.76953 98.8525 8.99414 99.2607 9.83203H99.3682V4.03125H102.097V19.5859H99.4111V17.7383H99.2607C98.8311 18.5977 97.9287 19.8008 95.9092 19.8008ZM96.6611 17.5449C98.4229 17.5449 99.4326 16.0195 99.4326 13.7422C99.4326 11.4863 98.4443 10.0039 96.6611 10.0039C94.835 10.0039 93.8896 11.5723 93.8896 13.7422C93.8896 15.9551 94.8564 17.5449 96.6611 17.5449Z" fill="#FF2E7F"/>
<path d="M81.9336 23.9688C81.3965 23.9688 80.8594 23.9473 80.5156 23.9043V21.7129C80.8594 21.7344 81.3105 21.7559 81.6758 21.7559C82.3418 21.7559 82.9004 21.6914 83.373 20.4453L83.6094 19.8223L79.3555 7.91992H82.2559L84.9629 16.7285H85.0918L87.7988 7.91992H90.6992L86.0156 21.0039C85.3496 22.873 84.125 23.9688 81.9336 23.9688Z" fill="#FF2E7F"/>
<path d="M73.7583 19.8223C70.2349 19.8223 68.0864 17.4805 68.0864 13.8281C68.0864 10.2188 70.2778 7.76953 73.6079 7.76953C76.4653 7.76953 78.936 9.55273 78.936 13.6562V14.5156H70.7935C70.8257 16.5029 71.9966 17.6738 73.7798 17.6738C74.9829 17.6738 75.7993 17.1582 76.1431 16.4707H78.8286C78.3345 18.4902 76.4653 19.8223 73.7583 19.8223ZM70.8149 12.6465H76.3149C76.2935 11.0566 75.2407 9.89648 73.6509 9.89648C71.9966 9.89648 70.9009 11.1533 70.8149 12.6465Z" fill="#FF2E7F"/>
<path d="M67.71 7.91992L63.542 19.5859H60.5342L56.3662 7.91992H59.2881L61.9736 16.5996H62.1025L64.8096 7.91992H67.71Z" fill="#FF2E7F"/>
<path d="M50.4253 19.8223C47.0308 19.8223 44.8394 17.416 44.8394 13.8066C44.8394 10.1758 47.0308 7.76953 50.4253 7.76953C53.8413 7.76953 56.0112 10.1758 56.0112 13.8066C56.0112 17.416 53.8413 19.8223 50.4253 19.8223ZM50.4468 17.6309C52.3159 17.6309 53.2397 15.9336 53.2397 13.7852C53.2397 11.6582 52.3159 9.93945 50.4468 9.93945C48.5347 9.93945 47.6108 11.6582 47.6108 13.7852C47.6108 15.9336 48.5347 17.6309 50.4468 17.6309Z" fill="#FF2E7F"/>
<path d="M34 19.5859V4.03125H36.793V17.2227H43.668V19.5859H34Z" fill="#FF2E7F"/>
</svg>
